# xmcd
#
# Track frame offsets:
#	150
#	15129
#	25091
#	50605
#	70954
#	88166
#	125186
#	148876
#	168549
#	190670
#	206224
#
# Disc length: 2940 seconds
# Revision: 0
# Processed by: cddbd v1.5.2PL0 Copyright (c) Steve Scherf et al.
# Submitted via: dBpowerAMP V12.0
#
DISCID=a00b7a0b
DTITLE=Joe Bonamasa - Sloe Gin
DYEAR=2007
DGENRE=Blues
TTITLE0=Ball Peen Hammer
TTITLE1=One Of These Days
TTITLE2=Seagull
TTITLE3=Dirt In My Pocket
TTITLE4=Sloe Gin
TTITLE5=Another Kind Of Love
TTITLE6=Around the bend
TTITLE7=Black Night
TTITLE8=Jelly Roll
TTITLE9=Richmond
TTITLE10=India
EXTD=
EXTT0=
EXTT1=
EXTT2=
EXTT3=
EXTT4=
EXTT5=
EXTT6=
EXTT7=
EXTT8=
EXTT9=
EXTT10=
PLAYORDER=
